<?xml version="1.0" encoding="UTF-8" standalone="no"?><!-- Generator: Gravit.io --><svg xmlns="http://www.w3.org/2000/svg" xmlns:xlink="http://www.w3.org/1999/xlink" style="isolation:isolate" viewBox="0 0 37.07 36" width="37.07pt" height="36pt"><defs><clipPath id="_clipPath_Cxi6gSxnoJ2GBm4zy3EYU5KwsXOHvZ88"><rect width="37.07" height="36"/></clipPath></defs><g clip-path="url(#_clipPath_Cxi6gSxnoJ2GBm4zy3EYU5KwsXOHvZ88)"><path d=" M 35.46 15.404 L 21.133 1.074 C 20.444 0.384 19.509 -0.002 18.535 0 C 17.561 -0.003 16.626 0.384 15.939 1.074 L 1.609 15.404 C 0.178 16.839 0.178 19.161 1.609 20.596 L 15.939 34.926 C 16.626 35.616 17.561 36.003 18.535 36 C 19.508 36.003 20.443 35.616 21.13 34.926 L 35.46 20.598 C 36.15 19.91 36.537 18.975 36.535 18 C 36.537 17.026 36.151 16.092 35.46 15.404 L 35.46 15.404 Z  M 26.815 22.823 C 26.741 23.687 26.455 23.903 25.951 23.903 C 24.584 24.84 24.079 23.257 23.431 22.823 C 22.208 22.031 18.608 22.463 17.888 19.44 C 15.151 21.384 16.591 24.407 15.078 25.92 L 7.735 18.576 C 10.541 14.544 16.231 10.153 19.039 10.656 C 19.831 9.576 20.981 9.433 22.061 9.36 C 21.597 10.547 21.322 11.135 21.201 11.376 C 22.008 11.275 23.279 11.29 24.401 12.051 C 24.611 12.193 24.704 12.455 24.63 12.697 C 24.556 12.94 24.332 13.105 24.079 13.104 C 23.963 13.104 23.851 13.07 23.755 13.005 C 23.165 12.606 22.504 12.496 21.944 12.494 L 22.279 12.887 C 24.726 16.057 23.432 16.994 26.959 21.097 C 27.463 21.817 26.889 22.247 26.815 22.824 L 26.815 22.823 Z " fill="rgb(164,164,164)"/></g></svg>